<svg width="90" height="78" viewBox="0 0 90 78" fill="none" xmlns="http://www.w3.org/2000/svg">
<path d="M67.0231 38.7808L89.0343 51.7079L67.0231 64.635L44.7646 77.5621V51.7079L67.0231 38.7808Z" fill="#2C2C48"/>
<path d="M22.5058 38.7808L0 51.7079L22.5058 64.635L44.7643 77.5621V51.7079L22.5058 38.7808Z" fill="#2C2C48"/>
<path d="M0.24707 25.8536V51.7079L22.5056 64.635V38.7808L0.24707 25.8536Z" fill="#2C2C48"/>
<path d="M89.2815 26.0751V51.7729L67.1738 64.6218V38.924L89.2815 26.0751Z" fill="#99A5FF"/>
<path d="M89.5477 25.8045V51.6587L67.1738 64.5858V38.7316L89.5477 25.8045Z" fill="#2C2C48"/>
<path d="M44.7477 25.8045L22.3739 38.7316L0 25.8045L22.3739 12.8773L44.7477 25.8045Z" fill="#2C2C48"/>
<path d="M67.1218 12.8774L44.7479 25.8045L22.374 12.8774L44.7479 0L67.1218 12.8774Z" fill="#2C2C48"/>
<path d="M67.1218 51.7085L44.7479 64.6357L22.374 51.7085L44.7479 38.7814L67.1218 51.7085Z" fill="#99A5FF"/>
<path d="M67.1218 38.7814L44.7479 51.7085L22.374 38.7814L44.7479 25.8543L67.1218 38.7814Z" fill="#99A5FF"/>
<path d="M89.4958 25.8044L67.1219 38.7316L44.748 25.8044L67.1219 12.8773L89.4958 25.8044Z" fill="#2C2C48"/>
</svg>
