<svg xmlns="http://www.w3.org/2000/svg" viewBox="0 0 84.5 84.5"><defs><style>.cls-1{fill:#fff;stroke-width:6px;}.cls-1,.cls-2{stroke:#231f20;stroke-miterlimit:10;}.cls-2{fill:#262262;stroke-width:3px;}</style></defs><g id="Layer_2" data-name="Layer 2"><g id="Layer_1-2" data-name="Layer 1"><path class="cls-1" d="M3,3H69.5a12,12,0,0,1,12,12V81.5a0,0,0,0,1,0,0H15a12,12,0,0,1-12-12V3A0,0,0,0,1,3,3Z"/><path class="cls-2" d="M26.71,22.71H61.79a0,0,0,0,1,0,0V57.79a4,4,0,0,1-4,4H22.71a0,0,0,0,1,0,0V26.71A4,4,0,0,1,26.71,22.71Z"/></g></g></svg>