<svg width="301" height="301" viewBox="0 0 301 301" fill="none" xmlns="http://www.w3.org/2000/svg">
<path d="M25.0834 117.892C25.0834 89.7957 25.0834 75.7477 30.5512 65.0165C35.3609 55.577 43.0354 47.9025 52.4748 43.0928C63.2061 37.625 77.2541 37.625 105.35 37.625H109.308C115.197 37.625 118.142 37.625 120.815 38.4368C123.182 39.1554 125.383 40.3336 127.294 41.904C129.452 43.6778 131.085 46.128 134.352 51.0285L141.564 61.8465C144.831 66.747 146.465 69.1972 148.623 70.971C150.534 72.5414 152.735 73.7196 155.102 74.4382C157.775 75.25 160.719 75.25 166.609 75.25H195.65C223.746 75.25 237.794 75.25 248.525 80.7178C257.965 85.5275 265.639 93.202 270.449 102.641C275.917 113.373 275.917 127.421 275.917 155.517V183.108C275.917 211.204 275.917 225.252 270.449 235.984C265.639 245.423 257.965 253.097 248.525 257.907C237.794 263.375 223.746 263.375 195.65 263.375H105.35C77.2541 263.375 63.2061 263.375 52.4748 257.907C43.0354 253.097 35.3609 245.423 30.5512 235.984C25.0834 225.252 25.0834 211.204 25.0834 183.108V117.892Z" stroke="#99A5FF" stroke-width="25.0833" stroke-linecap="round" stroke-linejoin="round"/>
</svg>
