<svg width="302" height="301" viewBox="0 0 302 301" fill="none" xmlns="http://www.w3.org/2000/svg">
<path fill-rule="evenodd" clip-rule="evenodd" d="M150.83 25.0833H151.754C168.894 25.0832 182.397 25.0831 193.319 25.8284C204.452 26.5879 213.816 28.1635 222.513 31.766C244.024 40.6763 261.115 57.7671 270.026 79.2785C273.628 87.9758 275.204 97.34 275.963 108.473C276.708 119.395 276.708 132.898 276.708 150.038V150.962C276.708 168.102 276.708 181.605 275.963 192.527C275.204 203.66 273.628 213.024 270.026 221.721C261.115 243.233 244.024 260.324 222.513 269.234C213.816 272.836 204.452 274.412 193.319 275.171C182.397 275.917 168.894 275.917 151.754 275.917H150.829C133.69 275.917 120.187 275.917 109.264 275.171C98.1318 274.412 88.7675 272.836 80.0703 269.234C58.5588 260.324 41.4681 243.233 32.5577 221.721C28.9552 213.024 27.3797 203.66 26.6201 192.527C25.8749 181.605 25.8749 168.102 25.875 150.962V150.038C25.8749 132.898 25.8749 119.395 26.6201 108.473C27.3797 97.34 28.9552 87.9758 32.5577 79.2785C41.4681 57.7671 58.5588 40.6763 80.0703 31.766C88.7675 28.1635 98.1318 26.5879 109.264 25.8284C120.187 25.0831 133.69 25.0832 150.83 25.0833ZM163.832 111.621C163.832 104.694 158.217 99.0794 151.29 99.0794C144.364 99.0794 138.749 104.694 138.749 111.621V137.959H112.411C105.485 137.959 99.8696 143.574 99.8696 150.5C99.8696 157.427 105.485 163.042 112.411 163.042H138.749V189.379C138.749 196.306 144.364 201.921 151.29 201.921C158.217 201.921 163.832 196.306 163.832 189.379V163.042H190.17C197.096 163.042 202.711 157.427 202.711 150.5C202.711 143.574 197.096 137.959 190.17 137.959H163.832V111.621Z" fill="#BDC5FF"/>
</svg>
