<svg
                width="40"
                height="40"
                viewBox="0 0 40 40"
                fill="none"
                xmlns="http://www.w3.org/2000/svg"
              >
                <path
                  d="M40 21.6571C40 22.3199 39.4627 22.8571 38.8 22.8571H24.0571C23.3944 22.8571 22.8571 23.3944 22.8571 24.0571V38.8C22.8571 39.4627 22.3199 40 21.6571 40H18.3429C17.6801 40 17.1429 39.4627 17.1429 38.8V24.0571C17.1429 23.3944 16.6056 22.8571 15.9429 22.8571H1.2C0.537256 22.8571 0 22.3199 0 21.6571V18.3429C0 17.6801 0.537258 17.1429 1.2 17.1429H15.9429C16.6056 17.1429 17.1429 16.6056 17.1429 15.9429V1.2C17.1429 0.537256 17.6801 0 18.3429 0H21.6571C22.3199 0 22.8571 0.537258 22.8571 1.2V15.9429C22.8571 16.6056 23.3944 17.1429 24.0571 17.1429H38.8C39.4627 17.1429 40 17.6801 40 18.3429V21.6571Z"
                  fill="#262263"
                />
              </svg>