<svg width="28" height="28" viewBox="0 0 28 28" fill="none" xmlns="http://www.w3.org/2000/svg">
<path d="M5.83333 2.33331H22.1667C23.0946 2.33433 23.9843 2.7034 24.6404 3.35956C25.2966 4.01572 25.6657 4.90537 25.6667 5.83331V17.5C25.6657 18.4279 25.2966 19.3176 24.6404 19.9737C23.9843 20.6299 23.0946 20.999 22.1667 21H8.64974L4.3249 25.3248C4.16176 25.488 3.9539 25.5991 3.72759 25.6442C3.50128 25.6892 3.2667 25.6661 3.05352 25.5778C2.84033 25.4895 2.65812 25.34 2.52993 25.1482C2.40173 24.9563 2.33332 24.7307 2.33333 24.5V5.83331C2.33434 4.90537 2.70342 4.01572 3.35958 3.35956C4.01573 2.7034 4.90538 2.33433 5.83333 2.33331V2.33331ZM10.5 12.8333H12.8333V15.1666C12.8333 15.4761 12.9562 15.7728 13.175 15.9916C13.3938 16.2104 13.6906 16.3333 14 16.3333C14.3094 16.3333 14.6062 16.2104 14.825 15.9916C15.0437 15.7728 15.1667 15.4761 15.1667 15.1666V12.8333H17.5C17.8094 12.8333 18.1062 12.7104 18.325 12.4916C18.5437 12.2728 18.6667 11.9761 18.6667 11.6666C18.6667 11.3572 18.5437 11.0605 18.325 10.8417C18.1062 10.6229 17.8094 10.5 17.5 10.5H15.1667V8.16665C15.1667 7.85723 15.0437 7.56048 14.825 7.34169C14.6062 7.1229 14.3094 6.99998 14 6.99998C13.6906 6.99998 13.3938 7.1229 13.175 7.34169C12.9562 7.56048 12.8333 7.85723 12.8333 8.16665V10.5H10.5C10.1906 10.5 9.89383 10.6229 9.67504 10.8417C9.45625 11.0605 9.33333 11.3572 9.33333 11.6666C9.33333 11.9761 9.45625 12.2728 9.67504 12.4916C9.89383 12.7104 10.1906 12.8333 10.5 12.8333Z" fill="#99A5FF"/>
</svg>
