<svg width="20" height="20" viewBox="0 0 20 20" fill="none" xmlns="http://www.w3.org/2000/svg">
<path d="M9.98093 13.3901L6.10093 17.2701C5.63117 17.7235 5.00379 17.9768 4.35093 17.9768C3.69807 17.9768 3.07069 17.7235 2.60093 17.2701C2.37054 17.0406 2.18772 16.7679 2.06298 16.4676C1.93824 16.1673 1.87403 15.8453 1.87403 15.5201C1.87403 15.1949 1.93824 14.8729 2.06298 14.5726C2.18772 14.2723 2.37054 13.9996 2.60093 13.7701L6.48093 9.89009C6.66923 9.70179 6.77502 9.4464 6.77502 9.18009C6.77502 8.91379 6.66923 8.6584 6.48093 8.47009C6.29263 8.28179 6.03723 8.176 5.77093 8.176C5.50463 8.176 5.24923 8.28179 5.06093 8.47009L1.18093 12.3601C0.399287 13.2109 -0.0234493 14.3308 0.00100474 15.4858C0.0254587 16.6409 0.495212 17.7419 1.31216 18.5589C2.12911 19.3758 3.23009 19.8456 4.38518 19.87C5.54026 19.8945 6.66014 19.4717 7.51093 18.6901L11.4009 14.8101C11.5892 14.6218 11.695 14.3664 11.695 14.1001C11.695 13.8338 11.5892 13.5784 11.4009 13.3901C11.2126 13.2018 10.9572 13.096 10.6909 13.096C10.4246 13.096 10.1692 13.2018 9.98093 13.3901V13.3901ZM18.5609 1.31009C17.7197 0.474102 16.5819 0.00488281 15.3959 0.00488281C14.21 0.00488281 13.0721 0.474102 12.2309 1.31009L8.34093 5.19009C8.24769 5.28333 8.17373 5.39402 8.12327 5.51585C8.07281 5.63767 8.04684 5.76824 8.04684 5.90009C8.04684 6.03195 8.07281 6.16252 8.12327 6.28434C8.17373 6.40617 8.24769 6.51686 8.34093 6.61009C8.43417 6.70333 8.54486 6.77729 8.66668 6.82775C8.7885 6.87821 8.91907 6.90419 9.05093 6.90419C9.18279 6.90419 9.31336 6.87821 9.43518 6.82775C9.557 6.77729 9.66769 6.70333 9.76093 6.61009L13.6409 2.73009C14.1107 2.27672 14.7381 2.02335 15.3909 2.02335C16.0438 2.02335 16.6712 2.27672 17.1409 2.73009C17.3713 2.95958 17.5541 3.2323 17.6789 3.53261C17.8036 3.83292 17.8678 4.15491 17.8678 4.48009C17.8678 4.80528 17.8036 5.12727 17.6789 5.42758C17.5541 5.72789 17.3713 6.00061 17.1409 6.23009L13.2609 10.1101C13.1672 10.2031 13.0928 10.3137 13.042 10.4355C12.9913 10.5574 12.9651 10.6881 12.9651 10.8201C12.9651 10.9521 12.9913 11.0828 13.042 11.2047C13.0928 11.3265 13.1672 11.4371 13.2609 11.5301C13.3539 11.6238 13.4645 11.6982 13.5864 11.749C13.7082 11.7998 13.8389 11.8259 13.9709 11.8259C14.1029 11.8259 14.2336 11.7998 14.3555 11.749C14.4774 11.6982 14.588 11.6238 14.6809 11.5301L18.5609 7.64009C19.3969 6.79888 19.8661 5.66107 19.8661 4.47509C19.8661 3.28912 19.3969 2.15131 18.5609 1.31009V1.31009ZM6.70093 13.1701C6.79437 13.2628 6.90519 13.3361 7.02702 13.3859C7.14886 13.4356 7.27932 13.4609 7.41093 13.4601C7.54254 13.4609 7.673 13.4356 7.79484 13.3859C7.91667 13.3361 8.02749 13.2628 8.12093 13.1701L13.0409 8.25009C13.2292 8.06179 13.335 7.8064 13.335 7.54009C13.335 7.27379 13.2292 7.0184 13.0409 6.83009C12.8526 6.64179 12.5972 6.536 12.3309 6.536C12.0646 6.536 11.8092 6.64179 11.6209 6.83009L6.70093 11.7501C6.6072 11.8431 6.53281 11.9537 6.48204 12.0755C6.43127 12.1974 6.40513 12.3281 6.40513 12.4601C6.40513 12.5921 6.43127 12.7228 6.48204 12.8447C6.53281 12.9665 6.6072 13.0771 6.70093 13.1701Z" fill="#99A5FF"/>
</svg>
