<svg width="81" height="70" viewBox="0 0 81 70" fill="none" xmlns="http://www.w3.org/2000/svg">
<path d="M20.2144 35L0.100971 46.6667L20.2144 58.3852L40.3472 70V46.6926L20.2144 35Z" fill="#404ECF"/>
<path d="M60.48 35L80.9375 46.6926L60.7639 58.4549L40.3472 70V58.3333V46.6926L60.48 35Z" fill="#404ECF"/>
<path d="M60.6479 46.7185L40.4107 58.411L20.1736 46.7185L40.4107 35.0259L60.6479 46.7185Z" fill="white"/>
<path d="M60.5208 35L40.4107 46.7185L20.1736 35L40.3472 23.3334L60.5208 35Z" fill="white"/>
<path d="M0 23.3334V46.7185L20.1328 58.4111L20.1736 35L0 23.3334Z" fill="#14191B"/>
<path d="M80.9375 23.3334L81.001 46.7185L60.7639 58.4111L60.5208 35L80.9375 23.3334Z" fill="#14191B"/>
<path d="M40.3472 23.3333L20.1736 35L0 23.3333L20.1736 11.6666L40.3472 23.3333Z" fill="#14191B"/>
<path d="M60.6479 11.6926L40.3472 23.3333L20.1736 11.6667L40.4107 0L60.6479 11.6926Z" fill="#14191B"/>
<path d="M80.9375 23.3333L60.5208 35L40.3472 23.3333L60.4629 11.6407L80.9375 23.3333Z" fill="#14191B"/>
</svg>
