<svg width="20" height="20" viewBox="0 0 20 20" fill="none" xmlns="http://www.w3.org/2000/svg">
<g clip-path="url(#clip0_149_31)">
<path d="M5.00004 8.33337C4.08337 8.33337 3.33337 9.08337 3.33337 10C3.33337 10.9167 4.08337 11.6667 5.00004 11.6667C5.91671 11.6667 6.66671 10.9167 6.66671 10C6.66671 9.08337 5.91671 8.33337 5.00004 8.33337ZM15 8.33337C14.0834 8.33337 13.3334 9.08337 13.3334 10C13.3334 10.9167 14.0834 11.6667 15 11.6667C15.9167 11.6667 16.6667 10.9167 16.6667 10C16.6667 9.08337 15.9167 8.33337 15 8.33337ZM10 8.33337C9.08337 8.33337 8.33337 9.08337 8.33337 10C8.33337 10.9167 9.08337 11.6667 10 11.6667C10.9167 11.6667 11.6667 10.9167 11.6667 10C11.6667 9.08337 10.9167 8.33337 10 8.33337Z" fill="black"/>
</g>
<defs>
<clipPath id="clip0_149_31">
<rect width="20" height="20" fill="white"/>
</clipPath>
</defs>
</svg>
