<svg
              className="logo-on-button"
              width="140"
              height="140"
              viewBox="0 0 205 178"
              fill="none"
              xmlns="http://www.w3.org/2000/svg"
            >
              <path
                d="M153.435 88.7793L203.825 118.373L153.435 147.967L102.479 177.561V118.373L153.435 88.7793Z"
                fill="black"
              />
              <path
                d="M51.5223 88.7793L0 118.373L51.5223 147.967L102.478 177.561V118.373L51.5223 88.7793Z"
                fill="black"
              />
              <path
                d="M0.565918 59.1855V118.373L51.522 147.967V88.7795L0.565918 59.1855Z"
                fill="black"
              />
              <path
                d="M204.391 59.6934V118.523L153.78 147.938V89.1082L204.391 59.6934Z"
                fill="black"
              />
              <path
                d="M205 59.0742V118.262L153.78 147.856V88.6681L205 59.0742Z"
                fill="black"
              />
              <path
                d="M102.441 59.0744L51.2203 88.6683L0 59.0744L51.2203 29.4805L102.441 59.0744Z"
                fill="black"
              />
              <path
                d="M153.661 29.48L102.44 59.0739L51.2202 29.48L102.44 0L153.661 29.48Z"
                fill="black"
              />
              <path
                d="M153.661 118.375L102.44 147.969L51.2202 118.375L102.44 88.7812L153.661 118.375Z"
                fill="white"
              />
              <path
                d="M153.661 88.7814L102.44 118.375L51.2202 88.7814L102.44 59.1875L153.661 88.7814Z"
                fill="white"
              />
              <path
                d="M204.881 59.0744L153.661 88.6683L102.44 59.0744L153.661 29.4805L204.881 59.0744Z"
                fill="black"
              />
            </svg>