<svg width="22" height="22" viewBox="0 0 22 22" fill="none" xmlns="http://www.w3.org/2000/svg">
<path d="M9.16667 16.5002C9.40978 16.5002 9.64294 16.4036 9.81485 16.2317C9.98676 16.0598 10.0833 15.8266 10.0833 15.5835V10.0835C10.0833 9.84038 9.98676 9.60722 9.81485 9.43531C9.64294 9.26341 9.40978 9.16683 9.16667 9.16683C8.92355 9.16683 8.69039 9.26341 8.51849 9.43531C8.34658 9.60722 8.25 9.84038 8.25 10.0835V15.5835C8.25 15.8266 8.34658 16.0598 8.51849 16.2317C8.69039 16.4036 8.92355 16.5002 9.16667 16.5002ZM18.3333 5.50016H14.6667V4.5835C14.6667 3.85415 14.3769 3.15468 13.8612 2.63895C13.3455 2.12323 12.646 1.8335 11.9167 1.8335H10.0833C9.35399 1.8335 8.65451 2.12323 8.13879 2.63895C7.62306 3.15468 7.33333 3.85415 7.33333 4.5835V5.50016H3.66667C3.42355 5.50016 3.19039 5.59674 3.01849 5.76865C2.84658 5.94056 2.75 6.17371 2.75 6.41683C2.75 6.65994 2.84658 6.8931 3.01849 7.06501C3.19039 7.23692 3.42355 7.3335 3.66667 7.3335H4.58333V17.4168C4.58333 18.1462 4.87306 18.8456 5.38879 19.3614C5.90451 19.8771 6.60399 20.1668 7.33333 20.1668H14.6667C15.396 20.1668 16.0955 19.8771 16.6112 19.3614C17.1269 18.8456 17.4167 18.1462 17.4167 17.4168V7.3335H18.3333C18.5764 7.3335 18.8096 7.23692 18.9815 7.06501C19.1534 6.8931 19.25 6.65994 19.25 6.41683C19.25 6.17371 19.1534 5.94056 18.9815 5.76865C18.8096 5.59674 18.5764 5.50016 18.3333 5.50016ZM9.16667 4.5835C9.16667 4.34038 9.26324 4.10722 9.43515 3.93531C9.60706 3.76341 9.84022 3.66683 10.0833 3.66683H11.9167C12.1598 3.66683 12.3929 3.76341 12.5648 3.93531C12.7368 4.10722 12.8333 4.34038 12.8333 4.5835V5.50016H9.16667V4.5835ZM15.5833 17.4168C15.5833 17.6599 15.4868 17.8931 15.3148 18.065C15.1429 18.2369 14.9098 18.3335 14.6667 18.3335H7.33333C7.09022 18.3335 6.85706 18.2369 6.68515 18.065C6.51324 17.8931 6.41667 17.6599 6.41667 17.4168V7.3335H15.5833V17.4168ZM12.8333 16.5002C13.0764 16.5002 13.3096 16.4036 13.4815 16.2317C13.6534 16.0598 13.75 15.8266 13.75 15.5835V10.0835C13.75 9.84038 13.6534 9.60722 13.4815 9.43531C13.3096 9.26341 13.0764 9.16683 12.8333 9.16683C12.5902 9.16683 12.3571 9.26341 12.1852 9.43531C12.0132 9.60722 11.9167 9.84038 11.9167 10.0835V15.5835C11.9167 15.8266 12.0132 16.0598 12.1852 16.2317C12.3571 16.4036 12.5902 16.5002 12.8333 16.5002Z" fill="#D12A70"/>
</svg>